<?xml version="1.0" encoding="UTF-8"?>
<svg version="1.1" xmlns="http://www.w3.org/2000/svg" width="256" height="256">
<path d="M0 0 C84.48 0 168.96 0 256 0 C256 84.48 256 168.96 256 256 C171.52 256 87.04 256 0 256 C0 171.52 0 87.04 0 0 Z " fill="#12152E" transform="translate(0,0)"/>
<path d="M0 0 C1.54179932 -0.01891296 1.54179932 -0.01891296 3.11474609 -0.03820801 C4.77111084 -0.02606262 4.77111084 -0.02606262 6.4609375 -0.01367188 C8.16950928 -0.01941223 8.16950928 -0.01941223 9.91259766 -0.02526855 C12.31999597 -0.02798962 14.72742376 -0.02061498 17.13476562 -0.00390625 C20.82228432 0.01749887 24.50785449 -0.0037032 28.1953125 -0.02929688 C30.53385847 -0.02665364 32.87240323 -0.02152874 35.2109375 -0.01367188 C36.31518066 -0.0217688 37.41942383 -0.02986572 38.55712891 -0.03820801 C39.58499512 -0.02559937 40.61286133 -0.01299072 41.671875 0 C42.57470215 0.00318237 43.4775293 0.00636475 44.40771484 0.00964355 C47.60882143 0.67924965 48.83915255 1.9784799 50.8359375 4.51757812 C50.76623916 7.37521026 50.32172481 8.89252831 48.56828308 11.14863586 C46.31155201 12.93196049 45.03664998 12.88112273 42.1809082 12.8581543 C41.24015945 12.8579277 40.29941071 12.85770111 39.33015442 12.85746765 C38.31757065 12.8419838 37.30498688 12.82649994 36.26171875 12.81054688 C35.22274948 12.80630203 34.18378021 12.80205719 33.11332703 12.79768372 C29.79143474 12.78087661 26.47014675 12.74322009 23.1484375 12.70507812 C20.89779521 12.69003394 18.64714343 12.67634508 16.39648438 12.6640625 C10.87609553 12.63096649 5.35605968 12.58074681 -0.1640625 12.51757812 C-0.29546631 13.26322021 -0.42687012 14.0088623 -0.56225586 14.77709961 C-1.09431418 17.19996156 -1.75254191 19.13042663 -2.79296875 21.36523438 C-3.26186523 22.39680664 -3.26186523 22.39680664 -3.74023438 23.44921875 C-4.39996528 24.87449878 -5.06143595 26.29897474 -5.72460938 27.72265625 C-6.03591797 28.40908203 -6.34722656 29.09550781 -6.66796875 29.80273438 C-7.09831421 30.72904663 -7.09831421 30.72904663 -7.53735352 31.67407227 C-8.37863885 33.82424854 -8.37863885 33.82424854 -8.1640625 37.51757812 C-6.75261813 39.07790298 -6.75261813 39.07790298 -4.7890625 40.45507812 C3.43344103 47.28541174 9.36531739 56.43761152 14.9609375 65.45507812 C15.35144287 66.06931641 15.74194824 66.68355469 16.14428711 67.31640625 C18.47309676 71.19828482 19.43959145 74.00301721 18.8359375 78.51757812 C18.1759375 79.50757813 17.5159375 80.49757813 16.8359375 81.51757812 C13.9609375 82.01757812 13.9609375 82.01757812 10.8359375 81.51757812 C7.90471985 78.31209449 5.83599819 74.88341894 3.7734375 71.08007812 C0.89278293 66.06075577 -2.29779364 61.45900234 -5.8515625 56.89257812 C-6.5468103 55.9868103 -6.5468103 55.9868103 -7.25610352 55.06274414 C-9.67273592 52.01923929 -11.63397214 50.09555989 -15.1640625 48.51757812 C-15.54216064 49.37512695 -15.92025879 50.23267578 -16.30981445 51.11621094 C-17.72028687 54.30864 -19.1353235 57.49896362 -20.5534668 60.68798828 C-21.16532477 62.06640834 -21.77537322 63.44563315 -22.38354492 64.82568359 C-23.26001602 66.81368917 -24.14303815 68.79867231 -25.02734375 70.78320312 C-25.55626221 71.97719727 -26.08518066 73.17119141 -26.63012695 74.40136719 C-27.38942505 75.9438916 -27.38942505 75.9438916 -28.1640625 77.51757812 C-28.48931915 78.23182953 -28.81457581 78.94608093 -29.14968872 79.68197632 C-32.53734067 82.76898038 -36.5150872 82.05566896 -40.92797852 82.00341797 C-42.43074341 82.00911301 -42.43074341 82.00911301 -43.96386719 82.0149231 C-47.28221739 82.0223451 -50.5996961 82.0009239 -53.91796875 81.97851562 C-56.2181742 81.97613228 -58.51838163 81.97522565 -60.81858826 81.97573853 C-65.64147103 81.97260777 -70.4640571 81.95601979 -75.28686523 81.92919922 C-81.48020441 81.89520009 -87.67321757 81.887571 -93.86663914 81.88908958 C-98.61658359 81.88854672 -103.36645625 81.87759326 -108.11637688 81.8630867 C-110.40061843 81.85670641 -112.68486814 81.85277694 -114.96911812 81.85129929 C-118.15606786 81.84698044 -121.34266629 81.82951047 -124.52954102 81.80810547 C-125.95637459 81.80946503 -125.95637459 81.80946503 -127.41203308 81.81085205 C-128.2771048 81.80232208 -129.14217651 81.79379211 -130.03346252 81.78500366 C-130.7872799 81.78165197 -131.54109728 81.77830029 -132.31775761 81.77484703 C-134.1640625 81.51757812 -134.1640625 81.51757812 -136.1640625 79.51757812 C-136.84730649 76.53614982 -137.02647643 75.37300962 -136.1640625 72.51757812 C-133.48437916 68.8715488 -130.3279474 65.7426009 -127.1640625 62.51757812 C-126.02935307 61.19249802 -124.90348454 59.85976525 -123.7890625 58.51757812 C-108.75994815 41.39057825 -84.81550006 23.28952478 -61.47802734 21.28710938 C-46.42723986 20.39285562 -32.18909707 21.15310207 -19.1640625 29.51757812 C-18.8134375 28.36257812 -18.4628125 27.20757812 -18.1015625 26.01757812 C-16.52748658 21.31783718 -14.67026626 16.76123136 -12.7265625 12.20507812 C-12.43837646 11.5115625 -12.15019043 10.81804687 -11.85327148 10.10351562 C-11.56524658 9.43964844 -11.27722168 8.77578125 -10.98046875 8.09179688 C-10.72724854 7.49971436 -10.47402832 6.90763184 -10.21313477 6.29760742 C-7.58394689 1.83649298 -5.19118739 0.0182984 0 0 Z " fill="#F9F9FA" transform="translate(171.1640625,81.482421875)"/>
<path d="M0 0 C-3.54338194 10.63014581 -8.48725038 20.74375086 -13 31 C-39.73 31 -66.46 31 -94 31 C-91.38517475 26.64195791 -88.86851791 23.6568361 -85.1875 20.3125 C-84.33079712 19.53193237 -84.33079712 19.53193237 -83.45678711 18.7355957 C-70.90054588 7.50970388 -56.61814583 -2.13531492 -40 -6 C-39.23816406 -6.18175781 -38.47632813 -6.36351563 -37.69140625 -6.55078125 C-24.12849142 -8.81454788 -12.117904 -6.27470103 0 0 Z " fill="#13162F" transform="translate(147,121)"/>
</svg>
